# xmcd
#
# Track frame offsets: 
#        150
#        16355
#        35756
#        52861
#        66969
#        85431
#        99443
#        113049
#        129890
#        144862
#        160876
#        172003
#        187739
#
# Disc length: 2799 seconds
#
# Revision: 0
# Processed by: cddbd v1.5.2PL0 Copyright (c) Steve Scherf et al.
# Submitted via: ExactAudioCopyFreeDBPlugin 1.0
#
DISCID=a20aed0d
DTITLE=www.twang - Last of the White-Hot Rednecks
DYEAR=2003
DGENRE=Country
TTITLE0=Walk Walk Walk Walk
TTITLE1=Jaded Lover
TTITLE2=Belly-Up to the Bar
TTITLE3=Delores (Drives for Daddy)
TTITLE4=Honky Tonk Music
TTITLE5=Hey Good Lookin'
TTITLE6=Hiccup Rag
TTITLE7=Your Cheatin' Heart (Stays on the Jukebox)
TTITLE8=Singin' the Blues
TTITLE9=The Best Place (Won't Last)
TTITLE10=Cry Cry Cry
TTITLE11=Big Hat
TTITLE12=A Suitcase and Song
EXTD=
EXTT0=
EXTT1=
EXTT2=
EXTT3=
EXTT4=
EXTT5=
EXTT6=
EXTT7=
EXTT8=
EXTT9=
EXTT10=
EXTT11=
EXTT12=
PLAYORDER=
